<?xml version="1.0" encoding="UTF-8"?>
<!DOCTYPE svg PUBLIC "-//W3C//DTD SVG 1.1//EN" "http://www.w3.org/Graphics/SVG/1.1/DTD/svg11.dtd">
<svg version="1.1" xmlns="http://www.w3.org/2000/svg" xmlns:xlink="http://www.w3.org/1999/xlink" width="329" height="202"  xml:space="preserve" id="ambulance">
    <!-- Generated by PaintCode - http://www.paintcodeapp.com -->
    <path id="ambulance-bezier" stroke="none" fill="rgb(43, 50, 55)" d="M 105.74,25.57 C 105.81,22.56 106.52,19.71 107.75,17.15 107.53,17.14 107.31,17.12 107.09,17.12 L 75.14,17.12 C 70.03,17.12 65.77,20.75 64.79,25.57 64.85,25.57 64.89,25.57 64.89,25.57 L 105.74,25.57 Z M 105.74,25.57" />
    <path id="ambulance-bezier2" stroke="none" fill="rgb(212, 61, 33)" d="M 105.73,26.03 C 105.73,25.88 105.74,25.73 105.74,25.57 L 64.89,25.57 C 64.89,25.57 64.85,25.57 64.79,25.57 63.27,25.51 44.09,25.03 35.62,38.38 26.8,52.28 24.44,63.33 11.21,83.73 1.28,98.67 0.3,105.59 0.3,114.52 0.3,123.46 0,129.66 0,145.89 0,162.11 10.14,168.59 24.57,168.59 L 38,168.59 C 38.43,151.65 52.29,138.05 69.33,138.05 86.38,138.05 100.24,151.65 100.67,168.59 L 105.73,168.59 105.73,26.03 Z M 93.97,104.32 C 93.97,104.32 42.26,104.16 37.58,104.14 32.91,104.12 27.31,98.67 31.56,89.31 37.27,77.76 43.9,65.22 46.75,60.72 51.78,52.8 63.43,53.42 63.43,53.42 L 94.17,53.42 93.97,104.32 Z M 93.97,104.32" />
    <path id="ambulance-bezier3" stroke="none" fill="rgb(27, 35, 39)" d="M 69.33,137.8 C 52.15,137.8 38.19,151.51 37.75,168.59 37.75,168.86 37.73,169.13 37.73,169.4 37.73,186.85 51.88,201 69.33,201 86.78,201 100.93,186.85 100.93,169.4 100.93,169.13 100.92,168.86 100.91,168.59 100.48,151.51 86.52,137.8 69.33,137.8 Z M 86.13,169.4 C 86.13,178.68 78.61,186.19 69.33,186.19 60.06,186.19 52.54,178.68 52.54,169.4 52.54,160.12 60.06,152.6 69.33,152.6 78.61,152.6 86.13,160.12 86.13,169.4 Z M 86.13,169.4" />
    <circle id="ambulance-oval" stroke="none" fill="rgb(43, 50, 55)" cx="69.35" cy="169.4" r="17.2" />
    <path id="ambulance-bezier4" stroke="none" fill="rgb(255, 255, 255)" d="M 46.75,60.72 C 43.9,65.22 37.27,77.76 31.56,89.31 27.31,98.67 32.91,104.12 37.58,104.14 42.26,104.16 93.97,104.32 93.97,104.32 L 94.17,53.42 63.43,53.42 C 63.43,53.42 51.78,52.8 46.75,60.72 Z M 46.75,60.72" />
    <path id="ambulance-bezier5" stroke="none" fill="rgb(231, 68, 36)" d="M 308.32,5.5 L 126.27,5.5 C 118.11,5.5 111.06,10.26 107.75,17.15 106.52,19.71 104.93,24.48 104.93,26.03 L 104.93,168.59 219.14,168.69 C 219.14,168.66 219.14,168.62 219.14,168.59 219.14,151.28 233.18,137.24 250.49,137.24 267.81,137.24 281.85,151.28 281.85,168.59 281.85,168.64 281.84,168.69 281.84,168.74 L 308.32,168.76 C 319.66,168.76 328.86,159.57 328.86,148.22 L 328.86,26.03 C 328.86,14.69 319.66,5.5 308.32,5.5 Z M 243.76,81.5 C 243.76,85.84 240.24,89.36 235.9,89.36 L 223.41,89.36 223.41,101.84 C 223.41,106.19 219.89,109.71 215.55,109.71 L 210.29,109.71 C 205.94,109.71 202.43,106.19 202.43,101.84 L 202.43,89.36 189.94,89.36 C 185.6,89.36 182.08,85.84 182.08,81.5 L 182.08,76.24 C 182.08,71.89 185.6,68.38 189.94,68.38 L 202.43,68.38 202.43,55.89 C 202.43,51.55 205.94,48.03 210.29,48.03 L 215.55,48.03 C 219.89,48.03 223.41,51.55 223.41,55.89 L 223.41,68.38 235.9,68.38 C 240.24,68.38 243.76,71.89 243.76,76.24 L 243.76,81.5 243.76,81.5 Z M 243.76,81.5" />
    <path id="ambulance-bezier6" stroke="none" fill="rgb(27, 35, 39)" d="M 250.49,137 C 233.04,137 218.9,151.14 218.9,168.59 218.9,168.62 218.9,168.66 218.9,168.69 218.94,186.1 233.07,200.19 250.49,200.19 267.9,200.19 282.01,186.12 282.09,168.74 282.09,168.69 282.09,168.64 282.09,168.59 282.09,151.14 267.94,137 250.49,137 Z M 250.49,185.39 C 241.22,185.39 233.69,177.87 233.69,168.59 233.69,159.32 241.22,151.8 250.49,151.8 259.77,151.8 267.29,159.32 267.29,168.59 267.29,177.87 259.77,185.39 250.49,185.39 Z M 250.49,185.39" />
    <circle id="ambulance-oval2" stroke="none" fill="rgb(43, 50, 55)" cx="250.5" cy="168.6" r="17.2" />
    <path id="ambulance-bezier7" stroke="none" fill="rgb(231, 68, 36)" d="M 96.48,7.94 C 96.48,3.93 92.35,0.68 87.26,0.68 82.17,0.68 78.04,3.93 78.04,7.94 L 78.04,17.12 96.48,17.12 96.48,7.94 Z M 96.48,7.94" />
    <path id="ambulance-bezier8" stroke="none" fill="rgb(247, 241, 230)" d="M 235.9,68.38 L 223.41,68.38 223.41,55.89 C 223.41,51.55 219.89,48.03 215.55,48.03 L 210.29,48.03 C 205.94,48.03 202.43,51.55 202.43,55.89 L 202.43,68.38 189.94,68.38 C 185.6,68.38 182.08,71.89 182.08,76.24 L 182.08,81.5 C 182.08,85.84 185.6,89.36 189.94,89.36 L 202.43,89.36 202.43,101.84 C 202.43,106.19 205.94,109.71 210.29,109.71 L 215.55,109.71 C 219.89,109.71 223.41,106.19 223.41,101.84 L 223.41,89.36 235.9,89.36 C 240.24,89.36 243.76,85.84 243.76,81.5 L 243.76,76.24 C 243.76,71.89 240.24,68.38 235.9,68.38 Z M 235.9,68.38" />
</svg>
